<svg width="121" height="16" viewBox="0 0 121 16" fill="none" xmlns="http://www.w3.org/2000/svg">
<path d="M44.4256 5.0825H41.3506V14H38.8156V5.0825H35.7406V3.0725H44.4256V5.0825ZM56.1897 8.5325C56.1897 9.3225 56.0522 10.0575 55.7772 10.7375C55.5072 11.4175 55.1247 12.01 54.6297 12.515C54.1347 13.015 53.5372 13.4075 52.8372 13.6925C52.1422 13.9775 51.3697 14.12 50.5197 14.12C49.6697 14.12 48.8947 13.9775 48.1947 13.6925C47.4947 13.4075 46.8947 13.015 46.3947 12.515C45.8997 12.01 45.5147 11.4175 45.2397 10.7375C44.9697 10.0575 44.8347 9.3225 44.8347 8.5325C44.8347 7.7425 44.9697 7.0075 45.2397 6.3275C45.5147 5.6475 45.8997 5.0575 46.3947 4.5575C46.8947 4.0575 47.4947 3.665 48.1947 3.38C48.8947 3.095 49.6697 2.9525 50.5197 2.9525C51.3697 2.9525 52.1422 3.0975 52.8372 3.3875C53.5372 3.6725 54.1347 4.065 54.6297 4.565C55.1247 5.065 55.5072 5.655 55.7772 6.335C56.0522 7.015 56.1897 7.7475 56.1897 8.5325ZM53.5947 8.5325C53.5947 7.9925 53.5247 7.5075 53.3847 7.0775C53.2447 6.6425 53.0422 6.275 52.7772 5.975C52.5172 5.675 52.1972 5.445 51.8172 5.285C51.4372 5.125 51.0047 5.045 50.5197 5.045C50.0297 5.045 49.5922 5.125 49.2072 5.285C48.8272 5.445 48.5047 5.675 48.2397 5.975C47.9797 6.275 47.7797 6.6425 47.6397 7.0775C47.4997 7.5075 47.4297 7.9925 47.4297 8.5325C47.4297 9.0775 47.4997 9.5675 47.6397 10.0025C47.7797 10.4325 47.9797 10.7975 48.2397 11.0975C48.5047 11.3975 48.8272 11.6275 49.2072 11.7875C49.5922 11.9425 50.0297 12.02 50.5197 12.02C51.0047 12.02 51.4372 11.9425 51.8172 11.7875C52.1972 11.6275 52.5172 11.3975 52.7772 11.0975C53.0422 10.7975 53.2447 10.4325 53.3847 10.0025C53.5247 9.5675 53.5947 9.0775 53.5947 8.5325ZM62.9315 8.3375H66.8165V12.95C66.2565 13.36 65.659 13.6575 65.024 13.8425C64.394 14.0275 63.734 14.12 63.044 14.12C62.144 14.12 61.324 13.98 60.584 13.7C59.849 13.415 59.219 13.025 58.694 12.53C58.169 12.03 57.764 11.44 57.479 10.76C57.194 10.075 57.0515 9.3325 57.0515 8.5325C57.0515 7.7175 57.1865 6.97 57.4565 6.29C57.7265 5.605 58.1115 5.015 58.6115 4.52C59.1165 4.025 59.724 3.64 60.434 3.365C61.149 3.09 61.9465 2.9525 62.8265 2.9525C63.2815 2.9525 63.709 2.99 64.109 3.065C64.509 3.14 64.8765 3.2425 65.2115 3.3725C65.5515 3.5025 65.8615 3.6575 66.1415 3.8375C66.4215 4.0175 66.6715 4.2125 66.8915 4.4225L66.1565 5.54C66.0415 5.715 65.8915 5.8225 65.7065 5.8625C65.5265 5.9025 65.3315 5.8575 65.1215 5.7275C64.9215 5.6075 64.7315 5.505 64.5515 5.42C64.3765 5.33 64.1965 5.2575 64.0115 5.2025C63.8265 5.1475 63.6315 5.1075 63.4265 5.0825C63.2215 5.0575 62.9915 5.045 62.7365 5.045C62.2615 5.045 61.834 5.13 61.454 5.3C61.074 5.465 60.749 5.7 60.479 6.005C60.214 6.31 60.009 6.6775 59.864 7.1075C59.719 7.5325 59.6465 8.0075 59.6465 8.5325C59.6465 9.1125 59.7265 9.6275 59.8865 10.0775C60.0465 10.5275 60.2715 10.9075 60.5615 11.2175C60.8565 11.5275 61.2065 11.765 61.6115 11.93C62.0215 12.09 62.474 12.17 62.969 12.17C63.274 12.17 63.549 12.14 63.794 12.08C64.044 12.02 64.2865 11.94 64.5215 11.84V10.1825H63.4415C63.2815 10.1825 63.1565 10.14 63.0665 10.055C62.9765 9.97 62.9315 9.8625 62.9315 9.7325V8.3375ZM71.0713 5.0225V7.5725H74.5063V9.4475H71.0713V12.05H75.5563V14H68.5213V3.0725H75.5563V5.0225H71.0713ZM84.9725 5.0825H81.8975V14H79.3625V5.0825H76.2875V3.0725H84.9725V5.0825ZM95.8006 3.0725V14H93.2506V9.38H88.8106V14H86.2606V3.0725H88.8106V7.64H93.2506V3.0725H95.8006ZM100.471 5.0225V7.5725H103.906V9.4475H100.471V12.05H104.956V14H97.9208V3.0725H104.956V5.0225H100.471ZM110.074 8.21C110.419 8.21 110.712 8.1675 110.952 8.0825C111.197 7.9925 111.397 7.87 111.552 7.715C111.707 7.56 111.819 7.38 111.889 7.175C111.959 6.965 111.994 6.74 111.994 6.5C111.994 6.02 111.837 5.645 111.522 5.375C111.212 5.105 110.729 4.97 110.074 4.97H109.054V8.21H110.074ZM115.459 14H113.164C112.739 14 112.434 13.84 112.249 13.52L110.434 10.3475C110.349 10.2125 110.254 10.115 110.149 10.055C110.044 9.99 109.894 9.9575 109.699 9.9575H109.054V14H106.519V3.0725H110.074C110.864 3.0725 111.537 3.155 112.092 3.32C112.652 3.48 113.107 3.705 113.457 3.995C113.812 4.285 114.069 4.6275 114.229 5.0225C114.389 5.4175 114.469 5.8475 114.469 6.3125C114.469 6.6675 114.422 7.0025 114.327 7.3175C114.232 7.6325 114.092 7.925 113.907 8.195C113.722 8.46 113.492 8.6975 113.217 8.9075C112.947 9.1175 112.634 9.29 112.279 9.425C112.444 9.51 112.599 9.6175 112.744 9.7475C112.889 9.8725 113.019 10.0225 113.134 10.1975L115.459 14Z" fill="#4918D4" fill-opacity="0.65"/>
<path d="M2.34118 6.32975C2.28014 6.32975 2.26561 6.30124 2.29564 6.25801L2.61341 5.86985C2.64344 5.82662 2.71416 5.79811 2.7752 5.79811H5.46989H8.16459C8.22562 5.79811 8.24015 5.84134 8.21012 5.88457L7.95242 6.25801C7.93493 6.28159 7.91245 6.30145 7.88644 6.31634C7.86042 6.33122 7.83142 6.3408 7.80129 6.34447L2.34118 6.32975ZM0.0606394 7.64783C-0.000394503 7.64783 -0.0149264 7.61932 0.0151062 7.57609L0.33287 7.18793C0.362903 7.1493 0.438468 7.12079 0.499502 7.12079H7.3818C7.44284 7.12079 7.47287 7.16402 7.45737 7.20725L7.33627 7.54757C7.32077 7.60552 7.2607 7.63404 7.19967 7.63404L0.0606394 7.64783ZM3.71299 8.96499C3.65195 8.96499 3.63742 8.92176 3.66745 8.88313L3.87962 8.52349C3.90965 8.48026 3.97068 8.43703 4.03075 8.43703H7.04854C7.10957 8.43703 7.1396 8.48026 7.1396 8.53729L7.10957 8.88221C7.10957 8.94016 7.04854 8.98247 7.00397 8.98247L3.71299 8.96499ZM19.3803 6.07129C18.4318 6.30124 17.7808 6.47416 16.8421 6.70411C16.6154 6.76206 16.6047 6.77586 16.4032 6.56063C16.1813 6.31596 16.0147 6.15775 15.6969 6.01426C14.7437 5.57368 13.8252 5.69785 12.9669 6.2295C11.9371 6.86232 11.4129 7.79132 11.4275 8.95028C11.4372 10.1 12.2703 11.0438 13.461 11.202C14.4908 11.3316 15.3482 10.9867 16.0292 10.2582C16.1658 10.1 16.2869 9.92803 16.4381 9.72659H13.522C13.2091 9.72659 13.1287 9.53987 13.2343 9.2952C13.4716 8.76587 13.7292 8.24492 14.0064 7.73338C14.0399 7.66473 14.0933 7.60661 14.1604 7.56586C14.2275 7.52512 14.3055 7.50345 14.3852 7.50342H19.8802C19.8502 7.89158 19.8502 8.27974 19.7891 8.6679C19.6314 9.68803 19.2045 10.6537 18.5481 11.4751C17.4631 12.8355 16.0457 13.6836 14.2486 13.9089C12.7702 14.0957 11.3926 13.8225 10.1865 12.9652C9.07138 12.165 8.43585 11.1017 8.26922 9.78454C8.0774 8.22271 8.55695 6.81909 9.55577 5.58287C10.6253 4.251 12.0436 3.40754 13.7787 3.10584C15.1971 2.86117 16.5592 3.01938 17.7799 3.80489C18.582 4.30803 19.1526 4.99788 19.5305 5.82662C19.6215 5.95631 19.5615 6.02806 19.3803 6.07129ZM24.3754 14C23.0026 13.9669 21.7519 13.5971 20.692 12.7353C19.8141 12.0318 19.2351 11.0496 19.0625 9.97126C18.7903 8.3524 19.2592 6.91935 20.2832 5.64082C21.3886 4.26571 22.7149 3.55195 24.512 3.25025C26.0514 2.99179 27.4988 3.13528 28.8163 3.98333C30.007 4.75505 30.7491 5.79903 30.9409 7.17414C31.1986 9.1094 30.6125 10.6859 29.2048 12.0362C28.2108 12.9947 26.9902 13.598 25.5815 13.8666C25.1776 13.943 24.7687 13.9522 24.3754 14ZM27.9686 8.20799C27.9531 8.02127 27.9531 7.87779 27.9231 7.73338C27.6509 6.31504 26.2781 5.51573 24.8453 5.82662C23.4424 6.12832 22.5347 6.97638 22.2014 8.32297C21.934 9.43961 22.5047 10.5746 23.5945 11.03C24.4219 11.3749 25.2551 11.3316 26.0514 10.9435C27.2469 10.3539 27.8931 9.43961 27.9686 8.20799Z" fill="#8969E3"/>
</svg>
