<svg width="121" height="16" viewBox="0 0 121 16" fill="none" xmlns="http://www.w3.org/2000/svg">
<path d="M44.91 5.0825H41.835V14H39.3V5.0825H36.225V3.0725H44.91V5.0825ZM56.6741 8.5325C56.6741 9.3225 56.5366 10.0575 56.2616 10.7375C55.9916 11.4175 55.6091 12.01 55.1141 12.515C54.6191 13.015 54.0216 13.4075 53.3216 13.6925C52.6266 13.9775 51.8541 14.12 51.0041 14.12C50.1541 14.12 49.3791 13.9775 48.6791 13.6925C47.9791 13.4075 47.3791 13.015 46.8791 12.515C46.3841 12.01 45.9991 11.4175 45.7241 10.7375C45.4541 10.0575 45.3191 9.3225 45.3191 8.5325C45.3191 7.7425 45.4541 7.0075 45.7241 6.3275C45.9991 5.6475 46.3841 5.0575 46.8791 4.5575C47.3791 4.0575 47.9791 3.665 48.6791 3.38C49.3791 3.095 50.1541 2.9525 51.0041 2.9525C51.8541 2.9525 52.6266 3.0975 53.3216 3.3875C54.0216 3.6725 54.6191 4.065 55.1141 4.565C55.6091 5.065 55.9916 5.655 56.2616 6.335C56.5366 7.015 56.6741 7.7475 56.6741 8.5325ZM54.0791 8.5325C54.0791 7.9925 54.0091 7.5075 53.8691 7.0775C53.7291 6.6425 53.5266 6.275 53.2616 5.975C53.0016 5.675 52.6816 5.445 52.3016 5.285C51.9216 5.125 51.4891 5.045 51.0041 5.045C50.5141 5.045 50.0766 5.125 49.6916 5.285C49.3116 5.445 48.9891 5.675 48.7241 5.975C48.4641 6.275 48.2641 6.6425 48.1241 7.0775C47.9841 7.5075 47.9141 7.9925 47.9141 8.5325C47.9141 9.0775 47.9841 9.5675 48.1241 10.0025C48.2641 10.4325 48.4641 10.7975 48.7241 11.0975C48.9891 11.3975 49.3116 11.6275 49.6916 11.7875C50.0766 11.9425 50.5141 12.02 51.0041 12.02C51.4891 12.02 51.9216 11.9425 52.3016 11.7875C52.6816 11.6275 53.0016 11.3975 53.2616 11.0975C53.5266 10.7975 53.7291 10.4325 53.8691 10.0025C54.0091 9.5675 54.0791 9.0775 54.0791 8.5325ZM63.4159 8.3375H67.3009V12.95C66.7409 13.36 66.1434 13.6575 65.5084 13.8425C64.8784 14.0275 64.2184 14.12 63.5284 14.12C62.6284 14.12 61.8084 13.98 61.0684 13.7C60.3334 13.415 59.7034 13.025 59.1784 12.53C58.6534 12.03 58.2484 11.44 57.9634 10.76C57.6784 10.075 57.5359 9.3325 57.5359 8.5325C57.5359 7.7175 57.6709 6.97 57.9409 6.29C58.2109 5.605 58.5959 5.015 59.0959 4.52C59.6009 4.025 60.2084 3.64 60.9184 3.365C61.6334 3.09 62.4309 2.9525 63.3109 2.9525C63.7659 2.9525 64.1934 2.99 64.5934 3.065C64.9934 3.14 65.3609 3.2425 65.6959 3.3725C66.0359 3.5025 66.3459 3.6575 66.6259 3.8375C66.9059 4.0175 67.1559 4.2125 67.3759 4.4225L66.6409 5.54C66.5259 5.715 66.3759 5.8225 66.1909 5.8625C66.0109 5.9025 65.8159 5.8575 65.6059 5.7275C65.4059 5.6075 65.2159 5.505 65.0359 5.42C64.8609 5.33 64.6809 5.2575 64.4959 5.2025C64.3109 5.1475 64.1159 5.1075 63.9109 5.0825C63.7059 5.0575 63.4759 5.045 63.2209 5.045C62.7459 5.045 62.3184 5.13 61.9384 5.3C61.5584 5.465 61.2334 5.7 60.9634 6.005C60.6984 6.31 60.4934 6.6775 60.3484 7.1075C60.2034 7.5325 60.1309 8.0075 60.1309 8.5325C60.1309 9.1125 60.2109 9.6275 60.3709 10.0775C60.5309 10.5275 60.7559 10.9075 61.0459 11.2175C61.3409 11.5275 61.6909 11.765 62.0959 11.93C62.5059 12.09 62.9584 12.17 63.4534 12.17C63.7584 12.17 64.0334 12.14 64.2784 12.08C64.5284 12.02 64.7709 11.94 65.0059 11.84V10.1825H63.9259C63.7659 10.1825 63.6409 10.14 63.5509 10.055C63.4609 9.97 63.4159 9.8625 63.4159 9.7325V8.3375ZM71.5557 5.0225V7.5725H74.9907V9.4475H71.5557V12.05H76.0407V14H69.0057V3.0725H76.0407V5.0225H71.5557ZM85.4569 5.0825H82.3819V14H79.8469V5.0825H76.7719V3.0725H85.4569V5.0825ZM96.285 3.0725V14H93.735V9.38H89.295V14H86.745V3.0725H89.295V7.64H93.735V3.0725H96.285ZM100.955 5.0225V7.5725H104.39V9.4475H100.955V12.05H105.44V14H98.4052V3.0725H105.44V5.0225H100.955ZM110.559 8.21C110.904 8.21 111.196 8.1675 111.436 8.0825C111.681 7.9925 111.881 7.87 112.036 7.715C112.191 7.56 112.304 7.38 112.374 7.175C112.444 6.965 112.479 6.74 112.479 6.5C112.479 6.02 112.321 5.645 112.006 5.375C111.696 5.105 111.214 4.97 110.559 4.97H109.539V8.21H110.559ZM115.944 14H113.649C113.224 14 112.919 13.84 112.734 13.52L110.919 10.3475C110.834 10.2125 110.739 10.115 110.634 10.055C110.529 9.99 110.379 9.9575 110.184 9.9575H109.539V14H107.004V3.0725H110.559C111.349 3.0725 112.021 3.155 112.576 3.32C113.136 3.48 113.591 3.705 113.941 3.995C114.296 4.285 114.554 4.6275 114.714 5.0225C114.874 5.4175 114.954 5.8475 114.954 6.3125C114.954 6.6675 114.906 7.0025 114.811 7.3175C114.716 7.6325 114.576 7.925 114.391 8.195C114.206 8.46 113.976 8.6975 113.701 8.9075C113.431 9.1175 113.119 9.29 112.764 9.425C112.929 9.51 113.084 9.6175 113.229 9.7475C113.374 9.8725 113.504 10.0225 113.619 10.1975L115.944 14Z" fill="#4918D4" fill-opacity="0.65"/>
<path d="M2.901 5.62007C2.838 5.62007 2.823 5.58907 2.854 5.54207L3.182 5.12007C3.213 5.07307 3.286 5.04207 3.349 5.04207H6.1305H8.912C8.975 5.04207 8.99 5.08907 8.959 5.13607L8.693 5.54207C8.67494 5.5677 8.65174 5.5893 8.62489 5.60548C8.59803 5.62166 8.5681 5.63208 8.537 5.63607L2.901 5.62007ZM0.546998 7.05307C0.483998 7.05307 0.468998 7.02207 0.499998 6.97507L0.827998 6.55307C0.858998 6.51107 0.936998 6.48007 0.999998 6.48007H8.104C8.167 6.48007 8.198 6.52707 8.182 6.57407L8.057 6.94407C8.041 7.00707 7.979 7.03807 7.916 7.03807L0.546998 7.05307ZM4.317 8.48507C4.254 8.48507 4.239 8.43807 4.27 8.39607L4.489 8.00507C4.52 7.95807 4.583 7.91107 4.645 7.91107H7.76C7.823 7.91107 7.854 7.95807 7.854 8.02007L7.823 8.39507C7.823 8.45807 7.76 8.50407 7.714 8.50407L4.317 8.48507ZM20.489 5.33907C19.51 5.58907 18.838 5.77707 17.869 6.02707C17.635 6.09007 17.624 6.10507 17.416 5.87107C17.187 5.60507 17.015 5.43307 16.687 5.27707C15.703 4.79807 14.755 4.93307 13.869 5.51107C12.806 6.19907 12.265 7.20907 12.28 8.46907C12.29 9.71907 13.15 10.7451 14.379 10.9171C15.442 11.0581 16.327 10.6831 17.03 9.89107C17.171 9.71907 17.296 9.53207 17.452 9.31307H14.442C14.119 9.31307 14.036 9.11007 14.145 8.84407C14.39 8.26859 14.6558 7.70221 14.942 7.14607C14.9765 7.07144 15.0317 7.00825 15.101 6.96395C15.1703 6.91965 15.2508 6.8961 15.333 6.89607H21.005C20.974 7.31807 20.974 7.74007 20.911 8.16207C20.7482 9.27114 20.3075 10.321 19.63 11.2141C18.51 12.6931 17.047 13.6151 15.192 13.8601C13.666 14.0631 12.244 13.7661 10.999 12.8341C9.848 11.9641 9.192 10.8081 9.02 9.37607C8.822 7.67807 9.317 6.15207 10.348 4.80807C11.452 3.36007 12.916 2.44307 14.707 2.11507C16.171 1.84907 17.577 2.02107 18.837 2.87507C19.665 3.42207 20.254 4.17207 20.644 5.07307C20.738 5.21407 20.676 5.29207 20.489 5.33907ZM25.645 13.9591C24.228 13.9231 22.937 13.5211 21.843 12.5841C20.9368 11.8193 20.3391 10.7514 20.161 9.57907C19.88 7.81907 20.364 6.26107 21.421 4.87107C22.562 3.37607 23.931 2.60007 25.786 2.27207C27.375 1.99107 28.869 2.14707 30.229 3.06907C31.458 3.90807 32.224 5.04307 32.422 6.53807C32.688 8.64207 32.083 10.3561 30.63 11.8241C29.604 12.8661 28.344 13.5221 26.89 13.8141C26.473 13.8971 26.051 13.9071 25.645 13.9591ZM29.354 7.66207C29.338 7.45907 29.338 7.30307 29.307 7.14607C29.026 5.60407 27.609 4.73507 26.13 5.07307C24.682 5.40107 23.745 6.32307 23.401 7.78707C23.125 9.00107 23.714 10.2351 24.839 10.7301C25.693 11.1051 26.553 11.0581 27.375 10.6361C28.609 9.99507 29.276 9.00107 29.354 7.66207Z" fill="#8969E3"/>
</svg>
