<svg width="159" height="13" viewBox="0 0 159 13" fill="none" xmlns="http://www.w3.org/2000/svg">
<path d="M4.68165 5.00173C4.5596 5.00173 4.53054 4.94801 4.5906 4.86655L5.22603 4.13518C5.28608 4.05373 5.42751 4 5.54956 4H10.9381H16.3267C16.4488 4 16.4778 4.08146 16.4178 4.16291L15.9025 4.86655C15.8675 4.91098 15.8225 4.9484 15.7705 4.97644C15.7185 5.00449 15.6605 5.02255 15.6002 5.02946L4.68165 5.00173ZM0.121261 7.48526C-0.000788878 7.48526 -0.0298483 7.43155 0.0302078 7.35009L0.66564 6.61872C0.725696 6.54593 0.876805 6.4922 0.998854 6.4922H14.7614C14.8834 6.4922 14.9435 6.57366 14.9125 6.65512L14.6703 7.29636C14.6393 7.40555 14.5192 7.45928 14.3972 7.45928L0.121261 7.48526ZM7.42486 9.96708C7.30281 9.96708 7.27375 9.88562 7.3338 9.81283L7.75807 9.13519C7.81813 9.05373 7.94018 8.97227 8.06029 8.97227H14.095C14.217 8.97227 14.2771 9.05373 14.2771 9.16118L14.217 9.81109C14.217 9.92028 14.095 10 14.0058 10L7.42486 9.96708Z" fill="#A87C0B"/>
<path d="M29.4925 6.66797C29.5511 6.83398 29.5804 6.97803 29.5804 7.1001C29.5804 7.22217 29.5609 7.30762 29.5218 7.35645C29.4876 7.40527 29.4412 7.44189 29.3826 7.46631C29.324 7.49072 29.2557 7.51025 29.1776 7.5249C29.0994 7.53955 29.0042 7.57861 28.8919 7.64209C28.6771 7.76416 28.5696 8.08643 28.5696 8.60889V10.3154C28.5062 10.4473 28.3719 10.6182 28.1668 10.8281C27.9617 11.0381 27.6834 11.2407 27.3318 11.436C26.4725 11.9146 25.5276 12.1538 24.4974 12.1538C23.472 12.1538 22.6224 12.0195 21.9485 11.751C21.2747 11.4824 20.7108 11.1089 20.2567 10.6304C19.3436 9.66846 18.887 8.38672 18.887 6.78516C18.887 5.79883 19.0433 4.92236 19.3558 4.15576C19.6732 3.38916 20.1004 2.74707 20.6375 2.22949C21.7361 1.16504 23.1131 0.632812 24.7684 0.632812C26.0916 0.632812 27.0804 0.87207 27.7347 1.35059C28.2523 1.73145 28.511 2.2124 28.511 2.79346C28.511 3.15479 28.4061 3.44531 28.1961 3.66504C27.9959 3.875 27.7347 3.97998 27.4124 3.97998C27.1292 3.97998 26.929 3.94336 26.8118 3.87012C26.8362 3.71387 26.8484 3.521 26.8484 3.2915C26.8484 3.06201 26.7972 2.83984 26.6946 2.625C26.597 2.40527 26.4505 2.23193 26.2552 2.10498C25.9183 1.88037 25.4105 1.76807 24.7318 1.76807C24.053 1.76807 23.472 1.85596 22.9886 2.03174C22.5101 2.20752 22.1048 2.47852 21.7728 2.84473C21.0843 3.59668 20.7401 4.70508 20.7401 6.16992C20.7401 9.3877 22.1121 10.9966 24.8563 10.9966C25.5057 10.9966 26.0648 10.8965 26.5335 10.6963C26.6849 10.6328 26.8021 10.562 26.8851 10.4839L26.8777 8.38916C26.8777 8.0376 26.6483 7.7959 26.1893 7.66406C26.077 7.63477 25.9622 7.60791 25.845 7.5835C25.7278 7.55908 25.6107 7.53467 25.4935 7.51025C25.3812 7.48096 25.2859 7.44434 25.2078 7.40039C25.0516 7.32227 24.9734 7.19287 24.9734 7.01221C24.9734 6.82666 25.0101 6.69238 25.0833 6.60938C25.1956 6.64844 25.4373 6.66797 25.8084 6.66797H29.4925ZM32.327 10.6963C31.8631 10.2324 31.4993 9.67334 31.2357 9.01904C30.9769 8.35986 30.8475 7.66406 30.8475 6.93164C30.8475 6.19434 30.9207 5.54492 31.0672 4.9834C31.2137 4.42188 31.4163 3.91406 31.6751 3.45996C31.9339 3.00098 32.2415 2.5957 32.598 2.24414C32.9544 1.89258 33.3426 1.59717 33.7625 1.35791C34.6121 0.874512 35.5325 0.632812 36.5237 0.632812C38.0276 0.632812 39.2532 1.11133 40.2005 2.06836C41.1917 3.06445 41.6873 4.37549 41.6873 6.00146C41.6873 7.22705 41.4114 8.32812 40.8597 9.30469C40.3568 10.1934 39.6634 10.8916 38.7796 11.3994C37.93 11.8926 37.0731 12.1392 36.2088 12.1392C35.3494 12.1392 34.6024 12.0146 33.9676 11.7656C33.3377 11.5117 32.7908 11.1553 32.327 10.6963ZM33.5574 3.03516C33.2693 3.44043 33.0569 3.93115 32.9202 4.50732C32.7835 5.0835 32.7151 5.70361 32.7151 6.36768C32.7151 7.02686 32.7786 7.63232 32.9056 8.18408C33.0325 8.73096 33.2352 9.21191 33.5135 9.62695C34.119 10.5303 35.0174 10.9819 36.2088 10.9819C37.41 10.9819 38.3206 10.5889 38.9407 9.80273C39.5364 9.03613 39.8343 7.94482 39.8343 6.52881C39.8343 4.35596 39.1898 2.89844 37.9007 2.15625C37.4417 1.89746 36.8973 1.76807 36.2674 1.76807C35.6375 1.76807 35.1004 1.87793 34.6561 2.09766C34.2117 2.31738 33.8455 2.62988 33.5574 3.03516ZM56.2772 12.0586C56.1649 12.0195 55.9232 12 55.5521 12H51.3626C51.1087 12 50.9036 11.9609 50.7474 11.8828C50.596 11.7998 50.5203 11.6509 50.5203 11.436C50.5203 11.2847 50.5594 11.1602 50.6375 11.0625C50.8231 11.1113 50.9988 11.1357 51.1649 11.1357C51.3309 11.1357 51.4871 11.1187 51.6336 11.0845C51.7801 11.0503 51.9193 10.9893 52.0511 10.9014C52.3636 10.7012 52.5296 10.396 52.5491 9.98584V1.84131H51.597C50.889 1.84131 50.4251 1.87549 50.2054 1.94385C49.9905 2.00732 49.827 2.09033 49.7147 2.19287C49.6072 2.29541 49.5193 2.43457 49.451 2.61035C49.3289 2.91309 49.2337 3.43555 49.1653 4.17773C49.0579 4.20215 48.9603 4.21436 48.8724 4.21436C48.6771 4.21436 48.5526 4.16309 48.4988 4.06055C48.4451 3.95801 48.4085 3.85303 48.389 3.74561C48.3694 3.6333 48.3548 3.51123 48.345 3.37939C48.3255 3.11572 48.3157 2.83496 48.3157 2.53711C48.3157 1.72168 48.3792 1.2041 48.5062 0.984375C48.6331 0.75 48.887 0.632812 49.2679 0.632812C49.3411 0.632812 49.4485 0.640137 49.5901 0.654785C49.7318 0.669434 49.9368 0.686523 50.2054 0.706055C50.9329 0.75 51.8045 0.771973 52.8201 0.771973H54.0579C55.4739 0.771973 56.4212 0.75 56.8997 0.706055C57.3782 0.657227 57.6761 0.632812 57.7933 0.632812C57.9105 0.632812 58.0179 0.649902 58.1155 0.684082C58.2132 0.718262 58.2913 0.76709 58.3499 0.830566C58.4427 0.937988 58.4891 1.07227 58.4891 1.2334C58.4891 1.47754 58.4818 1.67285 58.4671 1.81934C58.4525 1.96582 58.4354 2.13916 58.4158 2.33936C58.4012 2.53955 58.3792 2.74707 58.3499 2.96191C58.2816 3.46973 58.1961 3.81885 58.0936 4.00928C57.9959 4.146 57.8763 4.21436 57.7347 4.21436C57.598 4.21436 57.4759 4.20215 57.3685 4.17773L57.3758 3.71631C57.3758 3.28174 57.3514 2.93994 57.3026 2.69092C57.2537 2.43701 57.1512 2.24902 56.9949 2.12695C56.8387 2 56.6141 1.92188 56.3211 1.89258C56.0281 1.8584 55.6375 1.84131 55.1492 1.84131H54.2703V10.2715C54.2703 10.623 54.5511 10.8672 55.1126 11.0039C55.2493 11.0332 55.3787 11.0601 55.5008 11.0845C55.6277 11.1089 55.7498 11.1357 55.867 11.165C55.9842 11.1895 56.0818 11.2212 56.16 11.2603C56.3162 11.3384 56.3943 11.4702 56.3943 11.6558C56.3943 11.8267 56.3553 11.9609 56.2772 12.0586ZM61.199 10.6963C60.7352 10.2324 60.3714 9.67334 60.1077 9.01904C59.8489 8.35986 59.7195 7.66406 59.7195 6.93164C59.7195 6.19434 59.7928 5.54492 59.9393 4.9834C60.0858 4.42188 60.2884 3.91406 60.5472 3.45996C60.806 3.00098 61.1136 2.5957 61.47 2.24414C61.8265 1.89258 62.2147 1.59717 62.6346 1.35791C63.4842 0.874512 64.4046 0.632812 65.3958 0.632812C66.8997 0.632812 68.1253 1.11133 69.0726 2.06836C70.0638 3.06445 70.5594 4.37549 70.5594 6.00146C70.5594 7.22705 70.2835 8.32812 69.7318 9.30469C69.2288 10.1934 68.5355 10.8916 67.6517 11.3994C66.8021 11.8926 65.9451 12.1392 65.0809 12.1392C64.2215 12.1392 63.4744 12.0146 62.8397 11.7656C62.2098 11.5117 61.6629 11.1553 61.199 10.6963ZM62.4295 3.03516C62.1414 3.44043 61.929 3.93115 61.7923 4.50732C61.6556 5.0835 61.5872 5.70361 61.5872 6.36768C61.5872 7.02686 61.6507 7.63232 61.7776 8.18408C61.9046 8.73096 62.1072 9.21191 62.3856 9.62695C62.991 10.5303 63.8895 10.9819 65.0809 10.9819C66.282 10.9819 67.1927 10.5889 67.8128 9.80273C68.4085 9.03613 68.7064 7.94482 68.7064 6.52881C68.7064 4.35596 68.0618 2.89844 66.7728 2.15625C66.3138 1.89746 65.7693 1.76807 65.1395 1.76807C64.5096 1.76807 63.9725 1.87793 63.5281 2.09766C63.0838 2.31738 62.7176 2.62988 62.4295 3.03516ZM82.8421 6.66797C82.9007 6.83398 82.93 6.97803 82.93 7.1001C82.93 7.22217 82.9105 7.30762 82.8714 7.35645C82.8372 7.40527 82.7908 7.44189 82.7322 7.46631C82.6736 7.49072 82.6053 7.51025 82.5272 7.5249C82.449 7.53955 82.3538 7.57861 82.2415 7.64209C82.0267 7.76416 81.9193 8.08643 81.9193 8.60889V10.3154C81.8558 10.4473 81.7215 10.6182 81.5164 10.8281C81.3113 11.0381 81.033 11.2407 80.6815 11.436C79.8221 11.9146 78.8773 12.1538 77.847 12.1538C76.8216 12.1538 75.972 12.0195 75.2982 11.751C74.6243 11.4824 74.0604 11.1089 73.6063 10.6304C72.6932 9.66846 72.2366 8.38672 72.2366 6.78516C72.2366 5.79883 72.3929 4.92236 72.7054 4.15576C73.0228 3.38916 73.45 2.74707 73.9871 2.22949C75.0858 1.16504 76.4627 0.632812 78.118 0.632812C79.4412 0.632812 80.43 0.87207 81.0843 1.35059C81.6019 1.73145 81.8607 2.2124 81.8607 2.79346C81.8607 3.15479 81.7557 3.44531 81.5457 3.66504C81.3455 3.875 81.0843 3.97998 80.762 3.97998C80.4788 3.97998 80.2786 3.94336 80.1614 3.87012C80.1859 3.71387 80.1981 3.521 80.1981 3.2915C80.1981 3.06201 80.1468 2.83984 80.0443 2.625C79.9466 2.40527 79.8001 2.23193 79.6048 2.10498C79.2679 1.88037 78.7601 1.76807 78.0814 1.76807C77.4026 1.76807 76.8216 1.85596 76.3382 2.03174C75.8597 2.20752 75.4544 2.47852 75.1224 2.84473C74.4339 3.59668 74.0897 4.70508 74.0897 6.16992C74.0897 9.3877 75.4617 10.9966 78.2059 10.9966C78.8553 10.9966 79.4144 10.8965 79.8831 10.6963C80.0345 10.6328 80.1517 10.562 80.2347 10.4839L80.2274 8.38916C80.2274 8.0376 79.9979 7.7959 79.5389 7.66406C79.4266 7.63477 79.3118 7.60791 79.1946 7.5835C79.0775 7.55908 78.9603 7.53467 78.8431 7.51025C78.7308 7.48096 78.6356 7.44434 78.5574 7.40039C78.4012 7.32227 78.3231 7.19287 78.3231 7.01221C78.3231 6.82666 78.3597 6.69238 78.4329 6.60938C78.5452 6.64844 78.7869 6.66797 79.158 6.66797H82.8421ZM92.2537 8.74072C92.3856 8.62842 92.5247 8.57227 92.6712 8.57227C92.8958 8.57227 93.0252 8.604 93.0594 8.66748C93.2498 9.04834 93.345 9.67822 93.345 10.5571C93.345 11.1675 93.2767 11.6094 93.14 11.8828C93.096 11.9609 93.0496 12 93.0008 12H84.9149C84.3338 12 84.0433 11.8267 84.0433 11.48C84.0433 11.2944 84.0823 11.1528 84.1605 11.0552C84.3265 11.104 84.4876 11.1284 84.6439 11.1284C84.8001 11.1284 84.9344 11.1162 85.0467 11.0918C85.159 11.0674 85.264 11.0161 85.3616 10.938C85.596 10.7573 85.7132 10.4521 85.7132 10.0225V2.60303C85.7132 2.17822 85.5423 1.90723 85.2005 1.79004C85.1028 1.75586 85.0003 1.72656 84.8929 1.70215C84.7903 1.67285 84.6902 1.646 84.5926 1.62158C84.4998 1.59229 84.4168 1.56055 84.3436 1.52637C84.1776 1.43848 84.0945 1.31885 84.0945 1.16748C84.0945 0.967285 84.1336 0.823242 84.2117 0.735352C84.2996 0.759766 84.3875 0.771973 84.4754 0.771973H91.9681C92.4173 0.771973 92.6981 0.813477 92.8104 0.896484C93.0154 1.04297 93.118 1.36523 93.118 1.86328C93.118 2.3418 93.0765 2.73242 92.9935 3.03516C92.9153 3.33789 92.8592 3.51855 92.825 3.57715C92.7762 3.66504 92.681 3.70898 92.5394 3.70898C92.3343 3.70898 92.1927 3.68457 92.1146 3.63574C92.0413 3.58203 92.0023 3.54297 91.9974 3.51855C91.9339 2.82031 91.824 2.37598 91.6678 2.18555C91.5115 1.99023 91.326 1.8584 91.1111 1.79004C90.9012 1.7168 90.6253 1.68018 90.2835 1.68018H88.6502C88.1326 1.68018 87.8152 1.73145 87.6981 1.83398C87.5858 1.93652 87.515 2.05615 87.4857 2.19287C87.4564 2.32471 87.4417 2.49561 87.4417 2.70557V5.82568L87.8738 5.83301C88.9529 5.83301 89.9539 5.73779 90.8768 5.54736C90.9451 5.58154 91.0062 5.6792 91.0599 5.84033C91.1136 5.99658 91.1404 6.15283 91.1404 6.30908C91.1404 6.57275 91.0965 6.80225 91.0086 6.99756C90.6863 7.02686 90.3152 7.0415 89.8953 7.0415C89.4754 7.0415 88.6575 6.97314 87.4417 6.83643V10.1396C87.4417 10.5059 87.5394 10.7524 87.7347 10.8794C87.9007 10.9868 88.1985 11.0405 88.6282 11.0405L89.7342 11.0112C90.8035 10.9722 91.4993 10.8232 91.8216 10.5645C92.0023 10.418 92.1219 10.2251 92.1805 9.98584C92.2391 9.74658 92.2684 9.50732 92.2684 9.26807C92.2684 9.02393 92.2635 8.84814 92.2537 8.74072ZM102.493 12.0586C102.381 12.0195 102.139 12 101.768 12H97.5784C97.3245 12 97.1194 11.9609 96.9632 11.8828C96.8118 11.7998 96.7361 11.6509 96.7361 11.436C96.7361 11.2847 96.7752 11.1602 96.8533 11.0625C97.0389 11.1113 97.2147 11.1357 97.3807 11.1357C97.5467 11.1357 97.7029 11.1187 97.8494 11.0845C97.9959 11.0503 98.1351 10.9893 98.2669 10.9014C98.5794 10.7012 98.7454 10.396 98.765 9.98584V1.84131H97.8128C97.1048 1.84131 96.6409 1.87549 96.4212 1.94385C96.2064 2.00732 96.0428 2.09033 95.9305 2.19287C95.8231 2.29541 95.7352 2.43457 95.6668 2.61035C95.5447 2.91309 95.4495 3.43555 95.3812 4.17773C95.2737 4.20215 95.1761 4.21436 95.0882 4.21436C94.8929 4.21436 94.7684 4.16309 94.7147 4.06055C94.6609 3.95801 94.6243 3.85303 94.6048 3.74561C94.5853 3.6333 94.5706 3.51123 94.5609 3.37939C94.5413 3.11572 94.5316 2.83496 94.5316 2.53711C94.5316 1.72168 94.595 1.2041 94.722 0.984375C94.8489 0.75 95.1028 0.632812 95.4837 0.632812C95.5569 0.632812 95.6644 0.640137 95.806 0.654785C95.9476 0.669434 96.1526 0.686523 96.4212 0.706055C97.1487 0.75 98.0203 0.771973 99.0359 0.771973H100.274C101.69 0.771973 102.637 0.75 103.116 0.706055C103.594 0.657227 103.892 0.632812 104.009 0.632812C104.126 0.632812 104.234 0.649902 104.331 0.684082C104.429 0.718262 104.507 0.76709 104.566 0.830566C104.659 0.937988 104.705 1.07227 104.705 1.2334C104.705 1.47754 104.698 1.67285 104.683 1.81934C104.668 1.96582 104.651 2.13916 104.632 2.33936C104.617 2.53955 104.595 2.74707 104.566 2.96191C104.497 3.46973 104.412 3.81885 104.309 4.00928C104.212 4.146 104.092 4.21436 103.951 4.21436C103.814 4.21436 103.692 4.20215 103.584 4.17773L103.592 3.71631C103.592 3.28174 103.567 2.93994 103.518 2.69092C103.47 2.43701 103.367 2.24902 103.211 2.12695C103.055 2 102.83 1.92188 102.537 1.89258C102.244 1.8584 101.853 1.84131 101.365 1.84131H100.486V10.2715C100.486 10.623 100.767 10.8672 101.328 11.0039C101.465 11.0332 101.595 11.0601 101.717 11.0845C101.844 11.1089 101.966 11.1357 102.083 11.165C102.2 11.1895 102.298 11.2212 102.376 11.2603C102.532 11.3384 102.61 11.4702 102.61 11.6558C102.61 11.8267 102.571 11.9609 102.493 12.0586ZM110.498 12.0586C110.386 12.0195 110.144 12 109.773 12H106.719C106.465 12 106.263 11.9609 106.111 11.8828C105.96 11.7998 105.884 11.6509 105.884 11.436C105.884 11.2798 105.921 11.1553 105.994 11.0625C106.189 11.1113 106.37 11.1357 106.536 11.1357C106.702 11.1357 106.834 11.1187 106.931 11.0845C107.029 11.0454 107.115 10.9795 107.188 10.8867C107.334 10.6914 107.408 10.3667 107.408 9.9126V2.41992C107.393 2.07812 107.281 1.86084 107.071 1.76807C107.007 1.73877 106.919 1.71191 106.807 1.6875L106.455 1.61426C106.216 1.55566 106.07 1.48486 106.016 1.40186C105.962 1.31396 105.935 1.22607 105.935 1.13818C105.935 0.95752 105.972 0.815918 106.045 0.713379C106.158 0.752441 106.399 0.771973 106.77 0.771973H109.751C110.005 0.771973 110.208 0.813477 110.359 0.896484C110.515 0.974609 110.594 1.12109 110.594 1.33594C110.594 1.49707 110.555 1.62158 110.476 1.70947C110.291 1.66064 110.088 1.63623 109.868 1.63623C109.395 1.63623 109.151 2.02197 109.136 2.79346V6.03076H114.995V2.41992C114.981 2.07812 114.868 1.86084 114.659 1.76807C114.595 1.73877 114.507 1.71191 114.395 1.6875L114.043 1.61426C113.804 1.55566 113.658 1.48486 113.604 1.40186C113.55 1.31396 113.523 1.22607 113.523 1.13818C113.523 0.942871 113.56 0.80127 113.633 0.713379C113.745 0.752441 113.987 0.771973 114.358 0.771973H117.339C117.593 0.771973 117.796 0.813477 117.947 0.896484C118.103 0.974609 118.181 1.12109 118.181 1.33594C118.181 1.49707 118.142 1.62158 118.064 1.70947C117.879 1.66064 117.676 1.63623 117.456 1.63623C116.983 1.63623 116.739 2.02197 116.724 2.79346V10.2715C116.724 10.5449 116.765 10.7256 116.848 10.8135C116.971 10.9453 117.122 11.0308 117.303 11.0698C117.483 11.104 117.632 11.1357 117.749 11.165C117.867 11.1895 117.964 11.2212 118.042 11.2603C118.199 11.3384 118.277 11.4702 118.277 11.6558C118.277 11.8267 118.238 11.9609 118.159 12.0586C118.047 12.0195 117.805 12 117.434 12H114.38C114.126 12 113.924 11.9609 113.772 11.8828C113.621 11.7998 113.545 11.6509 113.545 11.436C113.545 11.2798 113.582 11.1553 113.655 11.0625C113.841 11.1113 114.014 11.1357 114.175 11.1357C114.336 11.1357 114.461 11.1187 114.549 11.0845C114.637 11.0503 114.712 10.9893 114.776 10.9014C114.912 10.7207 114.986 10.4155 114.995 9.98584V7.0415H109.136V10.2715C109.136 10.6572 109.243 10.9014 109.458 11.0039C109.527 11.0332 109.619 11.0601 109.737 11.0845C109.854 11.1089 109.969 11.1357 110.081 11.165C110.198 11.1895 110.296 11.2212 110.374 11.2603C110.535 11.3433 110.616 11.4751 110.616 11.6558C110.616 11.8267 110.576 11.9609 110.498 12.0586ZM127.849 8.74072C127.981 8.62842 128.12 8.57227 128.267 8.57227C128.492 8.57227 128.621 8.604 128.655 8.66748C128.846 9.04834 128.941 9.67822 128.941 10.5571C128.941 11.1675 128.872 11.6094 128.736 11.8828C128.692 11.9609 128.645 12 128.596 12H120.511C119.93 12 119.639 11.8267 119.639 11.48C119.639 11.2944 119.678 11.1528 119.756 11.0552C119.922 11.104 120.083 11.1284 120.24 11.1284C120.396 11.1284 120.53 11.1162 120.642 11.0918C120.755 11.0674 120.86 11.0161 120.957 10.938C121.192 10.7573 121.309 10.4521 121.309 10.0225V2.60303C121.309 2.17822 121.138 1.90723 120.796 1.79004C120.699 1.75586 120.596 1.72656 120.489 1.70215C120.386 1.67285 120.286 1.646 120.188 1.62158C120.096 1.59229 120.013 1.56055 119.939 1.52637C119.773 1.43848 119.69 1.31885 119.69 1.16748C119.69 0.967285 119.729 0.823242 119.807 0.735352C119.895 0.759766 119.983 0.771973 120.071 0.771973H127.564C128.013 0.771973 128.294 0.813477 128.406 0.896484C128.611 1.04297 128.714 1.36523 128.714 1.86328C128.714 2.3418 128.672 2.73242 128.589 3.03516C128.511 3.33789 128.455 3.51855 128.421 3.57715C128.372 3.66504 128.277 3.70898 128.135 3.70898C127.93 3.70898 127.788 3.68457 127.71 3.63574C127.637 3.58203 127.598 3.54297 127.593 3.51855C127.53 2.82031 127.42 2.37598 127.263 2.18555C127.107 1.99023 126.922 1.8584 126.707 1.79004C126.497 1.7168 126.221 1.68018 125.879 1.68018H124.246C123.728 1.68018 123.411 1.73145 123.294 1.83398C123.181 1.93652 123.111 2.05615 123.081 2.19287C123.052 2.32471 123.037 2.49561 123.037 2.70557V5.82568L123.47 5.83301C124.549 5.83301 125.55 5.73779 126.472 5.54736C126.541 5.58154 126.602 5.6792 126.656 5.84033C126.709 5.99658 126.736 6.15283 126.736 6.30908C126.736 6.57275 126.692 6.80225 126.604 6.99756C126.282 7.02686 125.911 7.0415 125.491 7.0415C125.071 7.0415 124.253 6.97314 123.037 6.83643V10.1396C123.037 10.5059 123.135 10.7524 123.33 10.8794C123.496 10.9868 123.794 11.0405 124.224 11.0405L125.33 11.0112C126.399 10.9722 127.095 10.8232 127.417 10.5645C127.598 10.418 127.718 10.2251 127.776 9.98584C127.835 9.74658 127.864 9.50732 127.864 9.26807C127.864 9.02393 127.859 8.84814 127.849 8.74072ZM134.903 12.0586C134.79 12.0195 134.551 12 134.185 12H131.197C130.943 12 130.74 11.9609 130.589 11.8828C130.437 11.7998 130.362 11.6509 130.362 11.436C130.362 11.2798 130.398 11.1553 130.471 11.0625C130.657 11.1113 130.835 11.1357 131.006 11.1357C131.177 11.1357 131.311 11.1187 131.409 11.0845C131.507 11.0454 131.592 10.9795 131.665 10.8867C131.812 10.6914 131.885 10.3667 131.885 9.9126V2.41992C131.87 2.07812 131.758 1.86084 131.548 1.76807C131.485 1.73877 131.397 1.71191 131.284 1.6875C131.177 1.66309 131.07 1.63867 130.962 1.61426C130.86 1.58496 130.772 1.55078 130.699 1.51172C130.552 1.43359 130.479 1.33105 130.479 1.2041C130.479 0.974609 130.518 0.811035 130.596 0.713379C130.708 0.752441 130.95 0.771973 131.321 0.771973H132.273L134.844 0.69873L135.159 0.691406C136.663 0.691406 137.788 0.959961 138.535 1.49707C139.283 2.0293 139.656 2.78125 139.656 3.75293C139.656 4.48047 139.419 5.14941 138.946 5.75977C138.418 6.43848 137.691 6.89746 136.763 7.13672C137.017 7.3125 137.305 7.63477 137.627 8.10352L138.404 9.23877C139.131 10.2983 139.734 10.8281 140.213 10.8281C140.393 10.8281 140.53 10.811 140.623 10.7769L140.806 10.7036C140.845 10.689 140.889 10.6816 140.938 10.6816C140.987 10.6816 141.038 10.7207 141.092 10.7988C141.145 10.8721 141.172 10.9575 141.172 11.0552C141.172 11.1528 141.131 11.27 141.048 11.4067C140.965 11.5386 140.847 11.6582 140.696 11.7656C140.354 12.0146 139.981 12.1392 139.576 12.1392C139.17 12.1392 138.836 12.0708 138.572 11.9341C138.313 11.7974 138.074 11.6191 137.854 11.3994C137.639 11.1748 137.442 10.9209 137.261 10.6377C137.085 10.3545 136.919 10.064 136.763 9.76611L136.331 8.89453C136.023 8.25977 135.777 7.85205 135.591 7.67139C135.41 7.48584 135.244 7.39307 135.093 7.39307H134.353C134.231 7.39307 134.17 7.30518 134.17 7.12939C134.17 6.88525 134.263 6.69482 134.449 6.55811C134.512 6.51416 134.702 6.48975 135.02 6.48486C135.337 6.4751 135.694 6.40674 136.089 6.27979C136.49 6.15283 136.819 5.97949 137.078 5.75977C137.581 5.3252 137.832 4.71484 137.832 3.92871C137.832 3.26953 137.613 2.72998 137.173 2.31006C136.675 1.83643 135.982 1.59473 135.093 1.58496C134.507 1.58496 134.117 1.67285 133.921 1.84863C133.726 2.01465 133.623 2.32959 133.614 2.79346V10.2715C133.614 10.6572 133.721 10.9014 133.936 11.0039C134.004 11.0332 134.095 11.0601 134.207 11.0845C134.319 11.1089 134.427 11.1357 134.529 11.165C134.637 11.1895 134.727 11.2212 134.8 11.2603C134.947 11.3384 135.02 11.4434 135.02 11.5752C135.02 11.7998 134.981 11.9609 134.903 12.0586Z" fill="#A87C0B"/>
<path d="M153.766 5.00173C153.888 5.00173 153.917 4.94801 153.857 4.86655L153.222 4.13518C153.162 4.05373 153.02 4 152.898 4H147.51H142.121C141.999 4 141.97 4.08146 142.03 4.16291L142.546 4.86655C142.581 4.91098 142.625 4.9484 142.677 4.97644C142.73 5.00449 142.787 5.02255 142.848 5.02946L153.766 5.00173ZM158.327 7.48526C158.449 7.48526 158.478 7.43155 158.418 7.35009L157.782 6.61872C157.722 6.54593 157.571 6.4922 157.449 6.4922H143.687C143.565 6.4922 143.504 6.57366 143.535 6.65512L143.778 7.29636C143.809 7.40555 143.929 7.45928 144.051 7.45928L158.327 7.48526ZM151.023 9.96708C151.145 9.96708 151.174 9.88562 151.114 9.81283L150.69 9.13519C150.63 9.05373 150.508 8.97227 150.388 8.97227H144.353C144.231 8.97227 144.171 9.05373 144.171 9.16118L144.231 9.81109C144.231 9.92028 144.353 10 144.442 10L151.023 9.96708Z" fill="#A87C0B"/>
</svg>
