<svg width="20" height="23" viewBox="0 0 20 23" fill="none" xmlns="http://www.w3.org/2000/svg">
<path d="M12.46 21C12.2842 21.3031 12.0318 21.5547 11.7282 21.7295C11.4246 21.9044 11.0804 21.9965 10.73 21.9965C10.3796 21.9965 10.0354 21.9044 9.73177 21.7295C9.42816 21.5547 9.17581 21.3031 9 21" stroke="#13C2C2" stroke-width="2" stroke-linecap="round" stroke-linejoin="round"/>
<path d="M16 7C16 5.4087 15.3679 3.88258 14.2426 2.75736C13.1174 1.63214 11.5913 1 10 1C8.4087 1 6.88258 1.63214 5.75736 2.75736C4.63214 3.88258 4 5.4087 4 7C4 14 1 16 1 16H19C19 16 16 14 16 7Z" stroke="#13C2C2" stroke-width="2" stroke-linecap="round" stroke-linejoin="round"/>
</svg>
