<svg width="22" height="16" viewBox="0 0 22 16" fill="none" xmlns="http://www.w3.org/2000/svg">
<path d="M20.86 8.5C20.1369 7.64848 19.1116 7.11074 18 7C18 5.05 17.32 3.4 15.96 2.04C14.6 0.68 12.95 0 11 0C9.42 0 8 0.47 6.75 1.43C5.5 2.39 4.67 3.62 4.25 5.15C3 5.43 1.96 6.08 1.17 7.1C0.38 8.12 0 9.28 0 10.58C0 12.09 0.54 13.38 1.61 14.43C2.69 15.5 4 16 5.5 16H17.5C18.75 16 19.81 15.56 20.69 14.69C21.56 13.81 22 12.75 22 11.5C22 10.35 21.62 9.35 20.86 8.5M9.5 12.18L8.09 13.6L3.5 9L8.09 4.4L9.5 5.82L6.32 9L9.5 12.18ZM13.91 13.6L12.5 12.18L15.68 9L12.5 5.82L13.91 4.4L18.5 9L13.91 13.6Z" fill="white"/>
</svg>
